<?xml version="1.0" encoding="utf-8"?>
<!-- Generator: Adobe Illustrator 27.0.0, SVG Export Plug-In . SVG Version: 6.00 Build 0)  -->
<svg version="1.1" xmlns="http://www.w3.org/2000/svg" xmlns:xlink="http://www.w3.org/1999/xlink" x="0px" y="0px"
	 viewBox="0 0 750 167.4" style="enable-background:new 0 0 750 167.4;" xml:space="preserve">
<style type="text/css">
	.st0{fill:#FCFCFC;}
	.st1{fill:#3D3F3E;}
	.st2{fill:#EAEAEA;}
	.st3{fill:#FFB829;}
	.st4{fill:#F22A72;}
	.st5{fill:#08ADF7;}
</style>
<g id="BACKGROUND">
	<rect class="st0" width="750" height="500"/>
</g>
<g id="OBJECTS">
	<g>
		<g>
			<rect x="416.67" y="83.34" class="st1" width="83.33" height="83.33"/>
			
				<rect x="441.86" y="108.53" transform="matrix(0.7071 -0.7071 0.7071 0.7071 45.8504 360.7001)" class="st2" width="32.94" height="32.94"/>
		</g>
		<g>
			<rect x="666.67" y="83.34" class="st1" width="83.33" height="83.33"/>
			<path class="st3" d="M750,166.67h-83.33V125c0-23.01,18.65-41.67,41.67-41.67h0c23.01,0,41.67,18.65,41.67,41.67V166.67z"/>
			<path class="st1" d="M687.24,136.62c0-11.65,9.44-21.09,21.09-21.09l0,0c11.65,0,21.09,9.44,21.09,21.09H687.24z"/>
		</g>
		<g>
			<rect x="666.67" y="166.67" class="st1" width="83.33" height="83.33"/>
			<g>
				<rect x="666.67" y="166.67" class="st2" width="83.33" height="6.39"/>
			</g>
		</g>
		<g>
			<rect x="666.67" y="0" class="st2" width="83.33" height="83.33"/>
			<path class="st4" d="M708.11,13.22L708.11,13.22c-14.45,0-26.16,11.71-26.16,26.16l0,0v0c0,14.45,11.71,26.16,26.16,26.16l0,0
				l0,0c14.45,0,26.16-11.71,26.16-26.16v0l0,0C734.27,24.93,722.56,13.22,708.11,13.22L708.11,13.22z"/>
			<path class="st1" d="M708.11,28.81L708.11,28.81c-5.83,0-10.56,4.73-10.56,10.56l0,0l0,0c0,5.83,4.73,10.56,10.56,10.56l0,0l0,0
				c5.83,0,10.56-4.73,10.56-10.56l0,0l0,0C718.68,33.54,713.95,28.81,708.11,28.81L708.11,28.81z"/>
		</g>
		<g>
			<rect x="416.67" y="166.67" class="st3" width="83.33" height="83.33"/>
		</g>
		<g>
			<rect x="416.67" y="0" class="st5" width="83.33" height="83.33"/>
			<rect x="500" y="0" class="st5" width="83.33" height="83.33"/>
			<g>
				<path class="st2" d="M433.94,83.43L433.94,83.43c-23.04-23.04-23.04-60.39,0-83.43l0,0h0C456.98,23.04,456.98,60.4,433.94,83.43
					L433.94,83.43z"/>
				<path class="st4" d="M477.98,83.43L477.98,83.43c-23.04-23.04-23.04-60.39,0-83.43h0l0,0C501.02,23.04,501.02,60.4,477.98,83.43
					L477.98,83.43z"/>
				<path class="st2" d="M522.02,83.43L522.02,83.43c-23.04-23.04-23.04-60.39,0-83.43l0,0l0,0
					C545.06,23.04,545.06,60.4,522.02,83.43L522.02,83.43z"/>
				<path class="st4" d="M566.05,83.43L566.05,83.43c-23.04-23.04-23.04-60.39,0-83.43l0,0h0C589.09,23.04,589.09,60.4,566.05,83.43
					L566.05,83.43z"/>
			</g>
			<g>
				<path class="st3" d="M451.22,41.64C451.2,26.57,445.44,11.5,433.95,0h0c-11.5,11.5-17.26,26.57-17.28,41.64H451.22z"/>
				<path class="st1" d="M495.26,41.64C495.24,26.57,489.48,11.5,477.98,0h0c-11.5,11.5-17.26,26.57-17.28,41.64H495.26z"/>
				<path class="st3" d="M539.29,41.64C539.28,26.57,533.52,11.5,522.02,0h0c-11.5,11.5-17.26,26.57-17.28,41.64H539.29z"/>
				<path class="st1" d="M583.33,41.64C583.31,26.57,577.55,11.5,566.05,0h0c-11.5,11.5-17.26,26.57-17.28,41.64H583.33z"/>
			</g>
			<circle class="st1" cx="433.33" cy="59.17" r="7.13"/>
			<circle class="st2" cx="477.58" cy="27.97" r="7.13"/>
			<circle class="st1" cx="522.25" cy="59.17" r="7.13"/>
			<circle class="st2" cx="566.5" cy="27.97" r="7.13"/>
		</g>
		<g>
			<rect x="583.33" y="0" class="st2" width="83.33" height="83.33"/>
			<polygon class="st3" points="666.67,0 666.67,83.34 583.33,83.34 604.37,62.3 645.63,21.05 			"/>
			<polygon class="st1" points="604.29,20.96 645.54,20.96 604.29,62.21 			"/>
			<polygon class="st1" points="666.67,42.09 666.67,83.34 625.42,83.34 604.37,62.3 604.29,62.21 645.54,20.96 			"/>
		</g>
		<g>
			<rect x="583.33" y="83.34" class="st4" width="83.33" height="83.33"/>
			<rect x="500" y="83.34" class="st2" width="83.33" height="83.33"/>
			<path class="st5" d="M500,83.34c0,46.02,37.31,83.33,83.33,83.33L500,83.34z"/>
			<path class="st5" d="M583.34,165.95v0.72h-0.01C583.33,166.43,583.33,166.19,583.34,165.95z"/>
			<rect x="500" y="166.67" class="st2" width="83.33" height="83.33"/>
			<rect x="583.33" y="166.67" class="st1" width="83.33" height="83.33"/>
			<polygon class="st3" points="500,83.34 583.33,166.67 583.33,250 500,166.67 			"/>
			<path class="st2" d="M583.33,250L500,166.67c23.01,0,43.85,9.33,58.93,24.41C574.01,206.16,583.33,226.99,583.33,250z"/>
			<polygon class="st1" points="583.33,166.67 500,166.67 500,83.34 			"/>
			<g>
				<g>
					<g>
						<path class="st5" d="M666.67,83.34c0,46.02-37.3,83.32-83.33,83.33L666.67,83.34z"/>
						<path class="st1" d="M583.34,166.67c0-46.02,37.3-83.32,83.33-83.33L583.34,166.67z"/>
					</g>
					<g>
						<path class="st1" d="M583.33,166.67L583.33,166.67c-46.02,0-83.33-37.31-83.33-83.33v0h0
							C546.02,83.34,583.33,120.65,583.33,166.67L583.33,166.67z"/>
						<path class="st5" d="M583.33,166.67c-46.02,0-83.33-37.31-83.33-83.33L583.33,166.67z"/>
					</g>
				</g>
				<g>
					<g>
						<path class="st4" d="M666.67,166.67c0,46.02-37.31,83.33-83.34,83.33c0-23.01,9.33-43.84,24.41-58.92
							S643.65,166.67,666.67,166.67z"/>
						<path class="st5" d="M583.33,250L583.33,250c-46.02,0-83.33-37.31-83.33-83.33v0h0C546.02,166.67,583.33,203.98,583.33,250
							L583.33,250z"/>
						<path class="st2" d="M583.33,250L500,166.67c23.01,0,43.85,9.33,58.93,24.41C574.01,206.16,583.33,226.99,583.33,250z"/>
					</g>
					<path class="st2" d="M666.67,166.67L583.33,250c0-23.01,9.33-43.84,24.41-58.92S643.65,166.67,666.67,166.67z"/>
				</g>
			</g>
		</g>
		<g>
			<g>
				<rect x="333.33" y="0" class="st1" width="83.33" height="83.33"/>
				<polygon class="st3" points="416.67,83.34 333.33,83.34 374.99,41.67 				"/>
				<polygon class="st2" points="416.67,41.67 333.33,41.67 374.99,0 				"/>
			</g>
			<g>
				<rect x="333.33" y="166.67" class="st2" width="83.33" height="83.33"/>
				<path class="st4" d="M416.67,250h-83.33v-41.67c0-23.01,18.65-41.67,41.67-41.67h0c23.01,0,41.67,18.65,41.67,41.67V250z"/>
			</g>
			<g>
				<rect x="333.33" y="83.34" class="st2" width="83.33" height="83.33"/>
				<path class="st3" d="M375,166.67L375,166.67c-23.01,0-41.67-18.65-41.67-41.67V83.34h83.33V125
					C416.67,148.01,398.01,166.67,375,166.67z"/>
				<path class="st1" d="M373.88,155.61L373.88,155.61c-6.65,0-12.05-5.39-12.05-12.05l0,0c0-6.65,5.39-12.05,12.05-12.05l0,0
					c6.65,0,12.05,5.39,12.05,12.05l0,0C385.92,150.22,380.53,155.61,373.88,155.61z"/>
				<g>
					<rect x="333.33" y="83.34" class="st2" width="83.33" height="41.67"/>
				</g>
			</g>
			<g>
				<rect y="0" class="st3" width="83.33" height="83.33"/>
				<rect x="83.33" y="0" class="st2" width="83.33" height="83.33"/>
				<polygon class="st2" points="0,83.34 0,0 83.33,0 				"/>
				<rect y="83.34" class="st1" width="83.33" height="83.33"/>
				<rect x="28.98" y="112.32" class="st2" width="25.37" height="25.37"/>
				<rect x="83.33" y="83.34" class="st5" width="83.33" height="83.33"/>
				<path class="st4" d="M83.33,48.28L83.33,48.28c-19.36,0-35.06,15.7-35.06,35.06l0,0l0,0c0,19.36,15.7,35.06,35.06,35.06h0h0
					c19.36,0,35.06-15.7,35.06-35.06l0,0l0,0C118.39,63.97,102.7,48.28,83.33,48.28L83.33,48.28z"/>
				<path class="st1" d="M66.86,83.34L66.86,83.34L66.86,83.34c0,9.1,7.38,16.48,16.48,16.48h0h0c9.1,0,16.48-7.38,16.48-16.48l0,0
					l0,0H66.86z"/>
				<rect y="166.67" class="st4" width="83.33" height="83.33"/>
				<rect x="83.33" y="166.67" class="st2" width="83.33" height="83.33"/>
				<polygon class="st1" points="83.33,166.67 166.67,83.34 166.67,166.67 83.33,250 				"/>
				<polygon class="st2" points="83.33,250 0,166.67 0,250 				"/>
				<path class="st1" d="M144.26,55.75L144.26,55.75c-20.88,0-37.81-16.93-37.81-37.81v0h0C127.33,17.94,144.26,34.87,144.26,55.75
					L144.26,55.75z"/>
				<g>
					<path class="st2" d="M131.33,162.42L131.33,162.42c2.75,2.75,2.75,7.2,0,9.95h0c-2.75,2.75-7.2,2.75-9.95,0l0,0
						c-2.75-2.75-2.75-7.2,0-9.95l0,0C124.13,159.67,128.58,159.67,131.33,162.42z"/>
					<g>
						<path class="st2" d="M150.79,142.96L150.79,142.96c2.75,2.75,2.75,7.2,0,9.95l0,0c-2.75,2.75-7.2,2.75-9.95,0l0,0
							c-2.75-2.75-2.75-7.2,0-9.95l0,0C143.59,140.21,148.05,140.21,150.79,142.96z"/>
					</g>
				</g>
			</g>
			<g>
				<rect x="250" y="0" class="st1" width="83.33" height="83.33"/>
				<rect x="166.67" y="0" class="st5" width="83.33" height="83.33"/>
				<path class="st4" d="M250,83.34h-83.33v0C166.67,37.31,203.98,0,250,0l0,0V83.34z"/>
				<path class="st1" d="M250,83.34h-52.72v0c0-29.11,23.6-52.72,52.72-52.72l0,0V83.34z"/>
				<path class="st2" d="M333.33,83.34H250V0h0C296.02,0,333.33,37.31,333.33,83.34L333.33,83.34z"/>
				<path class="st5" d="M302.62,83.34H250V30.72h0C279.06,30.72,302.62,54.28,302.62,83.34L302.62,83.34z"/>
				<rect x="166.67" y="83.34" class="st4" width="83.33" height="83.33"/>
				<rect x="250" y="83.34" class="st5" width="83.33" height="83.33"/>
				<path class="st4" d="M250,166.67L250,166.67l0-83.33h83.33v0C333.33,129.36,296.02,166.67,250,166.67z"/>
				<path class="st1" d="M250,136.26L250,136.26l0-52.93h52.93v0C302.93,112.57,279.23,136.26,250,136.26z"/>
				<path class="st3" d="M250,112.42L250,112.42l0-29.09h29.09l0,0C279.09,99.4,266.06,112.42,250,112.42z"/>
				<rect x="166.66" y="166.67" class="st3" width="83.34" height="83.33"/>
				<rect x="250" y="166.67" class="st2" width="83.33" height="83.33"/>
				<rect x="197.28" y="83.34" class="st3" width="52.72" height="166.66"/>
				<path class="st1" d="M250,83.34v140.3c0,14.56-11.8,26.36-26.36,26.36l0,0c-14.56,0-26.36-11.8-26.36-26.36V83.34H250z"/>
				<polygon class="st4" points="333.33,250 250,166.67 250,250 				"/>
				<polygon class="st2" points="250,83.34 197.28,83.34 250,136.06 				"/>
			</g>
		</g>
	</g>
</g>
</svg>
